<svg xmlns="http://www.w3.org/2000/svg" version="1.1" xmlns:xlink="http://www.w3.org/1999/xlink" xmlns:svgjs="http://svgjs.dev/svgjs" width="4000" height="2000" preserveAspectRatio="none" viewBox="0 0 4000 2000"><g mask="url(&quot;#SvgjsMask1036&quot;)" fill="none"><rect width="4000" height="2000" x="0" y="0" fill="rgba(255, 255, 255, 1)"></rect><path d="M257 2000L2257 0L3248.5 0L1248.5 2000z" fill="url(&quot;#SvgjsLinearGradient1037&quot;)"></path><path d="M1483 2000L3483 0L4762.5 0L2762.5 2000z" fill="url(&quot;#SvgjsLinearGradient1037&quot;)"></path><path d="M3905 2000L1905 0L-60 0L1940 2000z" fill="url(&quot;#SvgjsLinearGradient1038&quot;)"></path><path d="M2630 2000L630 0L-352.5 0L1647.5 2000z" fill="url(&quot;#SvgjsLinearGradient1038&quot;)"></path><path d="M2749.4981354867905 2000L4000 749.4981354867903L4000 2000z" fill="url(&quot;#SvgjsLinearGradient1037&quot;)"></path><path d="M0 2000L1250.5018645132097 2000L 0 749.4981354867903z" fill="url(&quot;#SvgjsLinearGradient1038&quot;)"></path></g><defs><mask id="SvgjsMask1036"><rect width="4000" height="2000" fill="#ffffff"></rect></mask><linearGradient x1="0%" y1="100%" x2="100%" y2="0%" id="SvgjsLinearGradient1037"><stop stop-color="rgba(0, 0, 0, 1)" offset="0"></stop><stop stop-opacity="0" stop-color="rgba(0, 0, 0, 1)" offset="0.66"></stop></linearGradient><linearGradient x1="100%" y1="100%" x2="0%" y2="0%" id="SvgjsLinearGradient1038"><stop stop-color="rgba(0, 0, 0, 1)" offset="0"></stop><stop stop-opacity="0" stop-color="rgba(0, 0, 0, 1)" offset="0.66"></stop></linearGradient></defs></svg>